<svg width="1584" height="396" viewBox="0 0 1584 396" fill="none" xmlns="http://www.w3.org/2000/svg">
<rect width="1584" height="396" fill="#F5F5F5"/>
<g id="Awesome banner" clip-path="url(#clip0_0_1)">
<rect width="1584" height="396" fill="url(#paint0_linear_0_1)"/>
<ellipse id="Ellipse 2" cx="323" cy="64" rx="285" ry="288" fill="url(#paint1_linear_0_1)" fill-opacity="0.1"/>
<g id="copyright">
<path d="M75.95 334.52L72.30 334.52L72.30 311.16L77.20 311.16L83.70 330.04Q83.60 329.02 83.50 327.62Q83.41 326.23 83.33 324.79Q83.25 323.35 83.25 322.23L83.25 311.16L86.90 311.16L86.90 334.52L82 334.52L75.57 315.64Q75.63 316.57 75.73 317.88Q75.82 319.19 75.89 320.57Q75.95 321.94 75.95 323.10L75.95 334.52M98.80 334.84Q96.46 334.84 94.67 333.96Q92.88 333.08 91.89 331.53Q90.90 329.98 90.90 327.93Q90.90 325.78 92.13 324.18Q93.36 322.58 95.34 322.17L95.34 322.10Q93.65 321.75 92.61 320.38Q91.57 319 91.57 317.11Q91.57 315.26 92.48 313.85Q93.39 312.44 95.02 311.64Q96.66 310.84 98.80 310.84Q100.94 310.84 102.59 311.64Q104.24 312.44 105.15 313.85Q106.06 315.26 106.06 317.11Q106.06 319 105.01 320.38Q103.95 321.75 102.26 322.10L102.26 322.17Q104.24 322.58 105.47 324.18Q106.70 325.78 106.70 327.93Q106.70 329.98 105.71 331.53Q104.72 333.08 102.93 333.96Q101.14 334.84 98.80 334.84M98.80 320.73Q100.30 320.73 101.23 319.82Q102.16 318.90 102.16 317.46Q102.16 315.99 101.23 315.08Q100.30 314.17 98.80 314.17Q97.30 314.17 96.37 315.08Q95.44 315.99 95.44 317.46Q95.44 318.90 96.37 319.82Q97.30 320.73 98.80 320.73M98.80 331.45Q100.56 331.45 101.68 330.42Q102.80 329.40 102.80 327.74Q102.80 326.04 101.68 325Q100.56 323.96 98.80 323.96Q97.04 323.96 95.92 325Q94.80 326.04 94.80 327.74Q94.80 329.40 95.92 330.42Q97.04 331.45 98.80 331.45M114.35 334.52L110.70 334.52L110.70 311.16L115.60 311.16L122.10 330.04Q122 329.02 121.90 327.62Q121.81 326.23 121.73 324.79Q121.65 323.35 121.65 322.23L121.65 311.16L125.30 311.16L125.30 334.52L120.40 334.52L113.97 315.64Q114.03 316.57 114.13 317.88Q114.22 319.19 114.29 320.57Q114.35 321.94 114.35 323.10" fill="white" fill-opacity="0.9"/>
<path d="M161.48 325.24L151.24 325.24L151.24 322.68L161.48 322.68" fill="white" fill-opacity="0.9"/>
<path d="M195.02 334.84Q191.82 334.84 189.96 333.05Q188.11 331.26 188.11 328.12L188.11 317.56Q188.11 314.42 189.96 312.63Q191.82 310.84 195.02 310.84Q198.15 310.84 200.01 312.65Q201.87 314.46 201.87 317.56L198.99 317.56Q198.99 315.58 197.95 314.50Q196.91 313.43 195.02 313.43Q193.13 313.43 192.06 314.50Q190.99 315.58 190.99 317.56L190.99 328.12Q190.99 330.10 192.06 331.18Q193.13 332.25 195.02 332.25Q196.91 332.25 197.95 331.18Q198.99 330.10 198.99 328.12L201.87 328.12Q201.87 331.22 200.01 333.03Q198.15 334.84 195.02 334.84" fill="white" fill-opacity="0.9"/>
<path d="M213.96 334.84Q210.83 334.84 209 333.02Q207.18 331.19 207.18 327.80L207.18 317.88Q207.18 314.49 209 312.66Q210.83 310.84 213.96 310.84Q217.10 310.84 218.92 312.66Q220.75 314.49 220.75 317.85L220.75 327.80Q220.75 331.19 218.92 333.02Q217.10 334.84 213.96 334.84M213.96 332.25Q215.85 332.25 216.86 331.18Q217.87 330.10 217.87 328.12L217.87 317.56Q217.87 315.58 216.86 314.50Q215.85 313.43 213.96 313.43Q212.11 313.43 211.08 314.50Q210.06 315.58 210.06 317.56L210.06 328.12Q210.06 330.10 211.08 331.18Q212.11 332.25 213.96 332.25" fill="white" fill-opacity="0.9"/>
<path d="M228.65 334.52L225.87 334.52L225.87 311.16L230.12 311.16L233.10 321.27L236.20 311.16L240.46 311.16L240.46 334.52L237.67 334.52L237.67 323.48Q237.67 321.91 237.72 319.88Q237.77 317.85 237.87 315.77Q237.96 313.69 238.09 312.02L234.31 324.09L231.82 324.09L228.20 312.31Q228.46 314.68 228.55 317.50Q228.65 320.31 228.65 323.48" fill="white" fill-opacity="0.9"/>
<path d="M247.85 334.52L245.07 334.52L245.07 311.16L249.32 311.16L252.30 321.27L255.40 311.16L259.66 311.16L259.66 334.52L256.87 334.52L256.87 323.48Q256.87 321.91 256.92 319.88Q256.97 317.85 257.07 315.77Q257.16 313.69 257.29 312.02L253.51 324.09L251.02 324.09L247.40 312.31Q247.66 314.68 247.75 317.50Q247.85 320.31 247.85 323.48" fill="white" fill-opacity="0.9"/>
<path d="M271.56 334.84Q268.30 334.84 266.57 333.03Q264.84 331.22 264.84 328.12L264.84 311.16L267.72 311.16L267.72 328.12Q267.72 330.04 268.67 331.16Q269.61 332.28 271.56 332.28Q273.48 332.28 274.44 331.16Q275.40 330.04 275.40 328.12L275.40 311.16L278.28 311.16L278.28 328.12Q278.28 331.26 276.57 333.05Q274.86 334.84 271.56 334.84" fill="white" fill-opacity="0.9"/>
<path d="M286.83 334.52L284.04 334.52L284.04 311.16L287.88 311.16L295.02 331.16Q294.95 330.36 294.87 329.19Q294.79 328.02 294.75 326.73Q294.70 325.43 294.70 324.28L294.70 311.16L297.48 311.16L297.48 334.52L293.64 334.52L286.54 314.52Q286.60 315.29 286.67 316.46Q286.73 317.62 286.78 318.92Q286.83 320.22 286.83 321.40" fill="white" fill-opacity="0.9"/>
<path d="M316.20 334.52L303.72 334.52L303.72 331.90L308.49 331.90L308.49 313.78L303.72 313.78L303.72 311.16L316.20 311.16L316.20 313.78L311.43 313.78L311.43 331.90L316.20 331.90" fill="white" fill-opacity="0.9"/>
<path d="M330.60 334.52L327.72 334.52L327.72 313.78L321.32 313.78L321.32 311.16L337 311.16L337 313.78L330.60 313.78" fill="white" fill-opacity="0.9"/>
<path d="M349.80 334.52L346.92 334.52L346.92 325.78L339.88 311.16L342.95 311.16L347.50 320.76Q347.88 321.56 348.11 322.12Q348.33 322.68 348.39 322.94Q348.46 322.68 348.70 322.12Q348.94 321.56 349.32 320.76L353.87 311.16L356.84 311.16L349.80 325.78" fill="white" fill-opacity="0.9"/>
<path d="M382.83 334.52L380.04 334.52L380.04 311.16L383.88 311.16L391.02 331.16Q390.95 330.36 390.87 329.19Q390.79 328.02 390.75 326.73Q390.70 325.43 390.70 324.28L390.70 311.16L393.48 311.16L393.48 334.52L389.64 334.52L382.54 314.52Q382.60 315.29 382.67 316.46Q382.73 317.62 382.78 318.92Q382.83 320.22 382.83 321.40" fill="white" fill-opacity="0.9"/>
<path d="M405.96 334.84Q402.83 334.84 401 333.02Q399.18 331.19 399.18 327.80L399.18 317.88Q399.18 314.49 401 312.66Q402.83 310.84 405.96 310.84Q409.10 310.84 410.92 312.66Q412.75 314.49 412.75 317.85L412.75 327.80Q412.75 331.19 410.92 333.02Q409.10 334.84 405.96 334.84M405.96 332.25Q407.85 332.25 408.86 331.18Q409.87 330.10 409.87 328.12L409.87 317.56Q409.87 315.58 408.86 314.50Q407.85 313.43 405.96 313.43Q404.11 313.43 403.08 314.50Q402.06 315.58 402.06 317.56L402.06 328.12Q402.06 330.10 403.08 331.18Q404.11 332.25 405.96 332.25" fill="white" fill-opacity="0.9"/>
<path d="M424.55 334.52L418.51 334.52L418.51 311.16L424.55 311.16Q426.83 311.16 428.47 312.02Q430.12 312.89 431.03 314.46Q431.95 316.02 431.95 318.17L431.95 327.48Q431.95 329.62 431.03 331.21Q430.12 332.79 428.47 333.66Q426.83 334.52 424.55 334.52M421.39 313.72L421.39 331.96L424.55 331.96Q426.67 331.96 427.87 330.78Q429.07 329.59 429.07 327.48L429.07 318.17Q429.07 316.09 427.87 314.90Q426.67 313.72 424.55 313.72" fill="white" fill-opacity="0.9"/>
<path d="M451.40 334.52L437.96 334.52L437.96 311.16L451.40 311.16L451.40 313.78L440.81 313.78L440.81 321.02L450.28 321.02L450.28 323.58L440.81 323.58L440.81 331.90L451.40 331.90" fill="white" fill-opacity="0.9"/>
<path d="M463.69 334.84Q460.30 334.84 458.28 333.05Q456.27 331.26 456.27 328.12L459.15 328.12Q459.15 330.07 460.39 331.18Q461.64 332.28 463.69 332.28Q465.67 332.28 466.86 331.13Q468.04 329.98 468.04 328.12Q468.04 326.71 467.29 325.67Q466.54 324.63 465.13 324.25L461.58 323.26Q459.37 322.62 458.11 320.97Q456.84 319.32 456.84 317.08Q456.84 315.22 457.67 313.82Q458.51 312.41 460.01 311.62Q461.51 310.84 463.47 310.84Q465.45 310.84 466.97 311.62Q468.49 312.41 469.35 313.80Q470.22 315.19 470.22 317.02L467.34 317.02Q467.34 315.42 466.25 314.41Q465.16 313.40 463.47 313.40Q461.77 313.40 460.71 314.41Q459.66 315.42 459.66 317.02Q459.66 318.30 460.35 319.21Q461.03 320.12 462.28 320.47L465.93 321.50Q468.27 322.14 469.56 323.91Q470.86 325.69 470.86 328.12Q470.86 331.19 468.91 333.02Q466.95 334.84 463.69 334.84" fill="white" fill-opacity="0.9"/>
</g>
<path d="M74.39 197.64L72.23 197.64L72.23 180.12L74.39 180.12L74.39 187.61L80.01 187.61L80.01 180.12L82.17 180.12L82.17 197.64L80.01 197.64L80.01 189.58L74.39 189.58" fill="white" fill-opacity="0.7"/>
<path d="M91.70 197.88Q89.15 197.88 87.64 196.54Q86.13 195.19 86.13 192.84L88.29 192.84Q88.29 194.30 89.22 195.13Q90.16 195.96 91.70 195.96Q93.18 195.96 94.07 195.10Q94.96 194.23 94.96 192.84Q94.96 191.78 94.40 191Q93.83 190.22 92.78 189.94L90.11 189.19Q88.46 188.71 87.51 187.48Q86.56 186.24 86.56 184.56Q86.56 183.17 87.18 182.11Q87.81 181.06 88.94 180.47Q90.06 179.88 91.53 179.88Q93.02 179.88 94.16 180.47Q95.30 181.06 95.94 182.10Q96.59 183.14 96.59 184.51L94.43 184.51Q94.43 183.31 93.62 182.56Q92.80 181.80 91.53 181.80Q90.26 181.80 89.46 182.56Q88.67 183.31 88.67 184.51Q88.67 185.47 89.19 186.16Q89.70 186.84 90.64 187.10L93.38 187.87Q95.13 188.35 96.10 189.68Q97.07 191.02 97.07 192.84Q97.07 195.14 95.61 196.51Q94.14 197.88 91.70 197.88" fill="white" fill-opacity="0.7"/>
<path d="M106.36 197.64L101.03 197.64L101.03 180.12LNaN 180.12Q108.40 180.12 109.76 181.32Q111.11 182.52 111.11 184.66Q111.11 186 110.26 187.08Q109.41 188.16 108.04 188.42L108.04 188.50Q109.07 188.62 109.85 189.22Q110.63 189.82 111.08 190.74Q111.52 191.66 111.52 192.77Q111.52 195.02 110.14 196.33Q108.76 197.64 106.36 197.64M103.14 182.06L103.14 187.58L105.98 187.58Q107.37 187.58 108.17 186.84Q108.98 186.10 108.98 184.82Q108.98 183.55 108.18 182.81Q107.39 182.06 NaN 182.06L103.14 182.06M103.14 189.46L103.14 195.70L106.12 195.70Q107.63 195.70 108.51 194.89Q109.38 194.09 109.38 192.70Q109.38 191.26 108.51 190.36Q107.63 189.46 106.12 189.46" fill="white" fill-opacity="0.7"/>
<path d="M121.48 197.64L119.32 197.64L119.32 182.09L114.52 182.09L114.52 180.12L126.28 180.12L126.28 182.09L121.48 182.09" fill="white" fill-opacity="0.7"/>
<path d="M140.08 197.64LNaN 197.64LNaN 180.12L140.08 180.12L140.08 182.09L132.14 182.09L132.14 187.51L139.24 187.51L139.24 189.43L132.14 189.43L132.14 195.67L140.08 195.67" fill="white" fill-opacity="0.7"/>
<path d="M169.72 197.64L158.44 197.64L158.44 195.67L163.12 195.67L163.12 186.41L158.92 186.41L158.92 184.44L165.28 184.44L165.28 195.67L169.72 195.67L169.72 197.64M163.96 182.06Q163.17 182.06 162.71 181.66Q162.26 181.25 162.26 180.55Q162.26 179.83 162.71 179.41Q163.17 178.99 163.96 178.99Q164.75 178.99 165.21 179.41Q165.66 179.83 165.66 180.55Q165.66 181.25 165.21 181.66Q164.75 182.06 163.96 182.06" fill="white" fill-opacity="0.7"/>
<path d="M178.53 197.83L177.47 197.83Q175.26 197.83 174.05 196.84Q172.84 195.84 172.84 194.02LNaN 194.02QNaN 194.93 175.65 195.44Q176.30 195.96 177.47 195.96L178.53 195.96Q179.73 195.96 180.39 195.43Q181.05 194.90 181.05 193.94Q181.05 192.24 179.49 192.02L175.84 191.50Q174.50 191.30 173.75 190.38Q173.01 189.46 173.01 187.94Q173.01 186.22 174.20 185.23Q175.38 184.25 177.47 184.25L178.53 184.25Q180.45 184.25 181.66 185.20Q182.87 186.14 182.97 187.68L180.78 187.68Q180.74 186.98 180.12 186.53Q179.51 186.07 178.53 186.07L177.47 186.07Q176.37 186.07 175.74 186.58Q175.12 187.08 175.12 187.94Q175.12 189.34 176.39 189.53L179.80 190.01Q183.16 190.49 183.16 193.94Q183.16 195.79 181.95 196.81Q180.74 197.83 178.53 197.83" fill="white" fill-opacity="0.7"/>
<path d="M192.93 197.83L191.87 197.83Q189.66 197.83 188.45 196.84Q187.24 195.84 187.24 194.02L189.40 194.02Q189.40 194.93 190.05 195.44Q190.70 195.96 191.87 195.96L192.93 195.96Q194.13 195.96 194.79 195.43Q195.45 194.90 195.45 193.94Q195.45 192.24 193.89 192.02L190.24 191.50Q188.90 191.30 188.15 190.38Q187.41 189.46 187.41 187.94Q187.41 186.22 188.60 185.23Q189.78 184.25 191.87 184.25L192.93 184.25Q194.85 184.25 196.06 185.20Q197.27 186.14 197.37 187.68L195.18 187.68Q195.14 186.98 194.52 186.53Q193.91 186.07 192.93 186.07L191.87 186.07Q190.77 186.07 190.14 186.58Q189.52 187.08 189.52 187.94Q189.52 189.34 190.79 189.53L194.20 190.01Q197.56 190.49 197.56 193.94Q197.56 195.79 196.35 196.81Q195.14 197.83 192.93 197.83" fill="white" fill-opacity="0.7"/>
<path d="M206.78 197.88Q204.50 197.88 203.13 196.52Q201.76 195.17 201.76 192.84L201.76 184.44L203.92 184.44L203.92 192.84Q203.92 194.28 204.69 195.13Q205.46 195.98 206.78 195.98Q208.12 195.98 208.90 195.13Q209.68 194.28 209.68 192.84L209.68 184.44L211.84 184.44L211.84 192.84Q211.84 195.17 210.45 196.52Q209.06 197.88 206.78 197.88" fill="white" fill-opacity="0.7"/>
<path d="M221.20 197.88Q218.87 197.88 217.44 196.48Q216.02 195.07 216.02 192.60L216.02 189.48Q216.02 187.01 217.44 185.60Q218.87 184.20 221.20 184.20Q222.76 184.20 223.92 184.82Q225.09 185.45 225.74 186.58Q226.38 187.70 226.38 189.24L226.38 191.59L218.13 191.59L218.13 192.84Q218.13 194.30 218.97 195.16Q219.81 196.01 221.20 196.01Q222.40 196.01 223.18 195.54Q223.96 195.07 224.13 194.28L226.29 194.28Q226.07 195.94 224.68 196.91Q223.29 197.88 221.20 197.88M218.13 189.24L218.13 189.91L224.27 189.91L224.27 189.24Q224.27 187.68 223.47 186.83Q222.66 185.98 221.20 185.98Q219.74 185.98 218.93 186.83Q218.13 187.68 218.13 189.24" fill="white" fill-opacity="0.7"/>
<path d="M236.13 197.83L235.07 197.83Q232.86 197.83 231.65 196.84Q230.44 195.84 230.44 194.02L232.60 194.02Q232.60 194.93 233.25 195.44Q233.90 195.96 235.07 195.96L236.13 195.96Q237.33 195.96 237.99 195.43Q238.65 194.90 238.65 193.94Q238.65 192.24 237.09 192.02L233.44 191.50Q232.10 191.30 231.35 190.38Q230.61 189.46 230.61 187.94Q230.61 186.22 231.80 185.23Q232.98 184.25 235.07 184.25L236.13 184.25Q238.05 184.25 239.26 185.20Q240.47 186.14 240.57 187.68L238.38 187.68Q238.34 186.98 237.72 186.53Q237.11 186.07 236.13 186.07L235.07 186.07Q233.97 186.07 233.34 186.58Q232.72 187.08 232.72 187.94Q232.72 189.34 233.99 189.53L237.40 190.01Q240.76 190.49 240.76 193.94Q240.76 195.79 239.55 196.81Q238.34 197.83 236.13 197.83" fill="white" fill-opacity="0.7"/>
<path d="M263.94 197.64L259.41 197.64L259.41 180.12L263.94 180.12Q265.65 180.12 266.88 180.77Q268.12 181.42 268.80 182.59Q269.49 183.77 269.49 185.38L269.49 192.36Q269.49 193.97 268.80 195.16Q268.12 196.34 266.88 196.99Q265.65 197.64 263.94 197.64M261.57 182.04L261.57 195.72L263.94 195.72Q265.53 195.72 266.43 194.83Q267.33 193.94 267.33 192.36L267.33 185.38Q267.33 183.82 266.43 182.93Q265.53 182.04 263.94 182.04" fill="white" fill-opacity="0.7"/>
<path d="M278.80 197.88Q276.47 197.88 275.04 196.48Q273.62 195.07 273.62 192.60L273.62 189.48Q273.62 187.01 275.04 185.60Q276.47 184.20 278.80 184.20Q280.36 184.20 281.52 184.82Q282.69 185.45 283.34 186.58Q283.98 187.70 283.98 189.24L283.98 191.59L275.73 191.59L275.73 192.84Q275.73 194.30 276.57 195.16Q277.41 196.01 278.80 196.01Q280 196.01 280.78 195.54Q281.56 195.07 281.73 194.28L283.89 194.28Q283.67 195.94 282.28 196.91Q280.89 197.88 278.80 197.88M275.73 189.24L275.73 189.91L281.87 189.91L281.87 189.24Q281.87 187.68 281.07 186.83Q280.26 185.98 278.80 185.98Q277.34 185.98 276.53 186.83Q275.73 187.68 275.73 189.24" fill="white" fill-opacity="0.7"/>
<path d="M293.39 197.88Q290.99 197.88 289.55 196.54Q288.11 195.19 288.11 192.84L288.11 189.24Q288.11 186.89 289.55 185.54Q290.99 184.20 293.39 184.20Q295.67 184.20 297.08 185.42Q298.48 186.65 298.55 188.76L296.39 188.76Q296.32 187.49 295.53 186.80Q294.74 186.12 293.39 186.12Q291.98 186.12 291.12 186.92Q290.27 187.73 290.27 189.22L290.27 192.84Q290.27 194.33 291.12 195.14Q291.98 195.96 293.39 195.96Q294.74 195.96 295.53 195.26Q296.32 194.57 296.39 193.32L298.55 193.32Q298.48 195.43 297.08 196.66Q295.67 197.88 293.39 197.88" fill="white" fill-opacity="0.7"/>
<path d="M327.45 197.64L316.86 197.64L316.86 195.65L322.70 189.41Q323.97 188.06 324.50 187.01Q325.02 185.95 325.02 184.94Q325.02 183.50 324.20 182.65Q323.37 181.80 321.95 181.80Q320.49 181.80 319.64 182.68Q318.78 183.55 318.78 185.04L316.62 185.04Q316.70 182.66 318.14 181.27Q319.58 179.88 321.95 179.88Q324.38 179.88 325.80 181.25Q327.23 182.62 327.23 184.97Q327.23 186.22 326.55 187.61Q325.86 189 324.21 190.73L319.48 195.67L327.45 195.67" fill="white" fill-opacity="0.7"/>
<path d="M336.40 197.88Q333.98 197.88 332.55 196.48Q331.12 195.07 331.12 192.72L331.12 185.04Q331.12 182.69 332.55 181.28Q333.98 179.88 336.40 179.88Q338.82 179.88 340.25 181.28Q341.68 182.69 341.68 185.04L341.68 192.72Q341.68 194.28 341.03 195.44Q340.38 196.61 339.20 197.24Q338.01 197.88 336.40 197.88M336.40 196.03Q337.84 196.03 338.72 195.11Q339.59 194.18 339.59 192.72L339.59 185.04Q339.59 183.58 338.72 182.65Q337.84 181.73 336.40 181.73Q334.96 181.73 334.08 182.65Q333.21 183.58 333.21 185.04L333.21 192.72Q333.21 194.18 334.08 195.11Q334.96 196.03 336.40 196.03M336.40 190.20Q335.75 190.20 335.36 189.84Q334.96 189.48 334.96 188.81Q334.96 188.16 335.36 187.81Q335.75 187.46 336.40 187.46Q337.05 187.46 337.44 187.81Q337.84 188.16 337.84 188.81Q337.84 189.48 337.44 189.84Q337.05 190.20 336.40 190.20" fill="white" fill-opacity="0.7"/>
<path d="M356.56 197.64L345.76 197.64L345.76 195.67L350.51 195.67L350.51 181.99L345.76 185.54L345.76 183.07L349.72 180.12L352.67 180.12L352.67 195.67L356.56 195.67" fill="white" fill-opacity="0.7"/>
<path d="M364.91 197.64L362.56 197.64L368.80 182.09L362.13 182.09L362.13 184.92L359.97 184.92L359.97 180.12L371.10 180.12L371.10 182.14" fill="white" fill-opacity="0.7"/>
<path d="M392.85 197.88Q390.81 197.88 389.61 196.74Q388.41 195.60 388.41 193.75Q388.41 192.53 388.96 191.62Q389.51 190.70 390.50 190.19Q391.48 189.67 392.75 189.67L396.83 189.67L396.83 188.64Q396.83 186.07 394.02 186.07Q392.78 186.07 392.01 186.53Q391.24 186.98 391.19 187.80L389.03 187.80Q389.15 186.24 390.48 185.22Q391.82 184.20 394.02 184.20Q396.42 184.20 397.71 185.35Q398.99 186.50 398.99 188.57L398.99 197.64L396.86 197.64L396.86 195.24L396.81 195.24Q396.62 196.46 395.58 197.17Q394.55 197.88 392.85 197.88M393.38 196.06Q394.96 196.06 395.90 195.29Q396.83 194.52 396.83 193.20L396.83 191.35L392.99 191.35Q391.94 191.35 391.28 191.99Q390.62 192.62 390.62 193.68Q390.62 194.78 391.35 195.42Q392.08 196.06 393.38 196.06" fill="white" fill-opacity="0.7"/>
<path d="M405.57 197.64L403.41 197.64L403.41 184.44L405.57 184.44L405.57 186.96L405.59 186.96Q405.76 185.64 406.67 184.92Q407.58 184.20 409.10 184.20Q411.09 184.20 412.26 185.42Q413.44 186.65 413.44 188.76L413.44 197.64L411.28 197.64L411.28 189.14Q411.28 187.63 410.52 186.83Q409.77 186.02 408.47 186.02Q407.13 186.02 406.35 186.86Q405.57 187.70 405.57 189.24" fill="white" fill-opacity="0.7"/>
<path d="M422.03 197.88Q420.06 197.88 418.88 196.56Q417.69 195.24 417.69 192.98L417.69 189.12Q417.69 186.84 418.86 185.52Q420.04 184.20 422.03 184.20Q423.52 184.20 424.49 184.94Q425.46 185.69 425.66 186.96L425.68 186.96L425.63 183.96L425.63 180.12L427.79 180.12L427.79 197.64L425.63 197.64L425.63 195.12L425.61 195.12Q425.44 196.42 424.48 197.15Q423.52 197.88 422.03 197.88M422.75 196.01Q424.10 196.01 424.86 195.17Q425.63 194.33 425.63 192.84L425.63 189.24Q425.63 187.75 424.86 186.91Q424.10 186.07 422.75 186.07Q421.38 186.07 420.62 186.78Q419.85 187.49 419.85 189.12L419.85 192.96Q419.85 194.57 420.62 195.29Q421.38 196.01 422.75 196.01" fill="white" fill-opacity="0.7"/>
<path d="M450.88 197.88Q448.36 197.88 446.92 196.46Q445.48 195.05 445.48 192.60L447.64 192.60Q447.64 194.21 448.49 195.08Q449.34 195.96 450.88 195.96Q452.42 195.96 453.27 195.08Q454.12 194.21 454.12 192.60L454.12 180.12L456.28 180.12L456.28 192.60Q456.28 195.05 454.83 196.46Q453.38 197.88 450.88 197.88" fill="white" fill-opacity="0.7"/>
<path d="M465.98 197.88Q463.70 197.88 462.33 196.52Q460.96 195.17 460.96 192.84L460.96 184.44L463.12 184.44L463.12 192.84Q463.12 194.28 463.89 195.13Q464.66 195.98 465.98 195.98Q467.32 195.98 468.10 195.13Q468.88 194.28 468.88 192.84L468.88 184.44L471.04 184.44L471.04 192.84Q471.04 195.17 469.65 196.52Q468.26 197.88 465.98 197.88" fill="white" fill-opacity="0.7"/>
<path d="M477.57 197.64L475.41 197.64L475.41 184.44L477.57 184.44L477.57 186.96L477.59 186.96Q477.76 185.64 478.67 184.92Q479.58 184.20 481.10 184.20Q483.09 184.20 484.26 185.42Q485.44 186.65 485.44 188.76L485.44 197.64L483.28 197.64L483.28 189.14Q483.28 187.63 482.52 186.83Q481.77 186.02 480.47 186.02Q479.13 186.02 478.35 186.86Q477.57 187.70 477.57 189.24" fill="white" fill-opacity="0.7"/>
<path d="M494.80 197.88Q492.47 197.88 491.04 196.48Q489.62 195.07 489.62 192.60L489.62 189.48Q489.62 187.01 491.04 185.60Q492.47 184.20 494.80 184.20Q496.36 184.20 497.52 184.82Q498.69 185.45 499.34 186.58Q499.98 187.70 499.98 189.24L499.98 191.59L491.73 191.59L491.73 192.84Q491.73 194.30 492.57 195.16Q493.41 196.01 494.80 196.01Q496 196.01 496.78 195.54Q497.56 195.07 497.73 194.28L499.89 194.28Q499.67 195.94 498.28 196.91Q496.89 197.88 494.80 197.88M491.73 189.24L491.73 189.91L497.87 189.91L497.87 189.24Q497.87 187.68 497.07 186.83Q496.26 185.98 494.80 185.98Q493.34 185.98 492.53 186.83Q491.73 187.68 491.73 189.24" fill="white" fill-opacity="0.7"/>
<path d="M529.05 197.64L518.46 197.64L518.46 195.65L524.30 189.41Q525.57 188.06 526.10 187.01Q526.62 185.95 526.62 184.94Q526.62 183.50 525.80 182.65Q524.97 181.80 523.55 181.80Q522.09 181.80 521.24 182.68Q520.38 183.55 520.38 185.04L518.22 185.04Q518.30 182.66 519.74 181.27Q521.18 179.88 523.55 179.88Q525.98 179.88 527.40 181.25Q528.83 182.62 528.83 184.97Q528.83 186.22 528.15 187.61Q527.46 189 525.81 190.73L521.08 195.67L529.05 195.67" fill="white" fill-opacity="0.7"/>
<path d="M538 197.88Q535.58 197.88 534.15 196.48Q532.72 195.07 532.72 192.72L532.72 185.04Q532.72 182.69 534.15 181.28Q535.58 179.88 538 179.88Q540.42 179.88 541.85 181.28Q543.28 182.69 543.28 185.04L543.28 192.72Q543.28 194.28 542.63 195.44Q541.98 196.61 540.80 197.24Q539.61 197.88 538 197.88M538 196.03Q539.44 196.03 540.32 195.11Q541.19 194.18 541.19 192.72L541.19 185.04Q541.19 183.58 540.32 182.65Q539.44 181.73 538 181.73Q536.56 181.73 535.68 182.65Q534.81 183.58 534.81 185.04L534.81 192.72Q534.81 194.18 535.68 195.11Q536.56 196.03 538 196.03M538 190.20Q537.35 190.20 536.96 189.84Q536.56 189.48 536.56 188.81Q536.56 188.16 536.96 187.81Q537.35 187.46 538 187.46Q538.65 187.46 539.04 187.81Q539.44 188.16 539.44 188.81Q539.44 189.48 539.04 189.84Q538.65 190.20 538 190.20" fill="white" fill-opacity="0.7"/>
<path d="M558.16 197.64L547.36 197.64L547.36 195.67L552.11 195.67L552.11 181.99L547.36 185.54L547.36 183.07L551.32 180.12L554.27 180.12L554.27 195.67L558.16 195.67" fill="white" fill-opacity="0.7"/>
<path d="M566.80 197.88Q565.14 197.88 563.87 197.23Q562.60 196.58 561.89 195.42Q561.18 194.26 561.18 192.74Q561.18 191.09 562.13 189.89Q563.08 188.69 564.66 188.42L564.66 188.35Q563.30 188.04 562.48 186.97Q561.66 185.90 561.66 184.51Q561.66 183.14 562.31 182.10Q562.96 181.06 564.12 180.47Q565.29 179.88 566.80 179.88Q568.34 179.88 569.49 180.47Q570.64 181.06 571.29 182.10Q571.94 183.14 571.94 184.51Q571.94 185.90 571.12 186.97Q570.30 188.04 568.94 188.35L568.94 188.42Q570.52 188.69 571.47 189.89Q572.42 191.09 572.42 192.74Q572.42 194.26 571.71 195.42Q571 196.58 569.74 197.23Q568.48 197.88 566.80 197.88M566.80 187.51Q568.14 187.51 568.96 186.72Q569.78 185.93 569.78 184.66Q569.78 183.38 568.96 182.59Q568.14 181.80 566.80 181.80Q565.48 181.80 564.65 182.59Q563.82 183.38 563.82 184.66Q563.82 185.93 564.65 186.72Q565.48 187.51 566.80 187.51M566.80 195.94Q568.34 195.94 569.30 195.04Q570.26 194.14 570.26 192.70Q570.26 191.23 569.30 190.33Q568.34 189.43 566.80 189.43Q565.26 189.43 564.30 190.33Q563.34 191.23 563.34 192.70Q563.34 194.14 564.30 195.04Q565.26 195.94 566.80 195.94" fill="white" fill-opacity="0.7"/>
<path d="M591.86 197.64L589.84 197.64L589.84 184.44L591.71 184.44L591.71 186.19L591.76 186.19Q591.88 185.30 592.47 184.75Q593.06 184.20 593.97 184.20Q594.83 184.20 595.43 184.70Q596.03 185.21 596.30 186.07L596.32 186.07Q596.49 185.21 597.08 184.70Q597.66 184.20 598.58 184.20Q599.85 184.20 600.60 185.15Q601.36 186.10 601.36 187.61L601.36 197.64L599.34 197.64L599.34 187.58Q599.34 186.79 598.96 186.32Q598.58 185.86 597.90 185.86Q597.26 185.86 596.87 186.31Q596.49 186.77 596.49 187.56L596.49 197.64L594.71 197.64L594.71 187.58Q594.71 186.79 594.33 186.32Q593.94 185.86 593.30 185.86Q592.62 185.86 592.24 186.31Q591.86 186.77 591.86 187.56" fill="white" fill-opacity="0.7"/>
<path d="M608.85 197.88Q606.81 197.88 605.61 196.74Q604.41 195.60 604.41 193.75Q604.41 192.53 604.96 191.62Q605.51 190.70 606.50 190.19Q607.48 189.67 608.75 189.67L612.83 189.67L612.83 188.64Q612.83 186.07 610.02 186.07Q608.78 186.07 608.01 186.53Q607.24 186.98 607.19 187.80L605.03 187.80Q605.15 186.24 606.48 185.22Q607.82 184.20 610.02 184.20Q612.42 184.20 613.71 185.35Q614.99 186.50 614.99 188.57L614.99 197.64L612.86 197.64L612.86 195.24L612.81 195.24Q612.62 196.46 611.58 197.17Q610.55 197.88 608.85 197.88M609.38 196.06Q610.96 196.06 611.90 195.29Q612.83 194.52 612.83 193.20L612.83 191.35L608.99 191.35Q607.94 191.35 607.28 191.99Q606.62 192.62 606.62 193.68Q606.62 194.78 607.35 195.42Q608.08 196.06 609.38 196.06" fill="white" fill-opacity="0.7"/>
<path d="M622.05 197.64L619.89 197.64L619.89 184.44L622.05 184.44L622.05 186.96L622.10 186.96Q622.26 185.69 623.18 184.94Q624.09 184.20 625.62 184.20Q627.69 184.20 628.80 185.44Q629.92 186.67 629.92 188.95L629.92 190.08L627.76 190.08L627.76 188.95Q627.76 186.07 624.95 186.07Q623.54 186.07 622.79 186.89Q622.05 187.70 622.05 189.24" fill="white" fill-opacity="0.7"/>
<path d="M636.09 197.64L633.93 197.64L633.93 180.12L636.09 180.12L636.09 189.89L638.61 189.89L642.30 184.44L644.78 184.44L640.53 190.73L645.02 197.64L642.50 197.64L638.66 191.76L636.09 191.76" fill="white" fill-opacity="0.7"/>
<path d="M653.73 197.83L652.67 197.83Q650.46 197.83 649.25 196.84Q648.04 195.84 648.04 194.02L650.20 194.02Q650.20 194.93 650.85 195.44Q651.50 195.96 652.67 195.96L653.73 195.96Q654.93 195.96 655.59 195.43Q656.25 194.90 656.25 193.94Q656.25 192.24 654.69 192.02L651.04 191.50Q649.70 191.30 648.95 190.38Q648.21 189.46 648.21 187.94Q648.21 186.22 649.40 185.23Q650.58 184.25 652.67 184.25L653.73 184.25Q655.65 184.25 656.86 185.20Q658.07 186.14 658.17 187.68L655.98 187.68Q655.94 186.98 655.32 186.53Q654.71 186.07 653.73 186.07L652.67 186.07Q651.57 186.07 650.94 186.58Q650.32 187.08 650.32 187.94Q650.32 189.34 651.59 189.53L655 190.01Q658.36 190.49 658.36 193.94Q658.36 195.79 657.15 196.81Q655.94 197.83 653.73 197.83" fill="white" fill-opacity="0.7"/>
<path d="M664.77 197.64L662.61 197.64L662.61 180.12L664.77 180.12L664.77 186.96L664.79 186.96Q664.96 185.64 665.87 184.92Q666.78 184.20 668.30 184.20Q670.29 184.20 671.46 185.42Q672.64 186.65 672.64 188.76L672.64 197.64L670.48 197.64L670.48 189.12Q670.48 187.63 669.72 186.83Q668.97 186.02 667.67 186.02Q666.33 186.02 665.55 186.86Q664.77 187.70 664.77 189.24" fill="white" fill-opacity="0.7"/>
<path d="M682 197.88Q679.67 197.88 678.24 196.48Q676.82 195.07 676.82 192.60L676.82 189.48Q676.82 187.01 678.24 185.60Q679.67 184.20 682 184.20Q683.56 184.20 684.72 184.82Q685.89 185.45 686.54 186.58Q687.18 187.70 687.18 189.24L687.18 191.59L678.93 191.59L678.93 192.84Q678.93 194.30 679.77 195.16Q680.61 196.01 682 196.01Q683.20 196.01 683.98 195.54Q684.76 195.07 684.93 194.28L687.09 194.28Q686.87 195.94 685.48 196.91Q684.09 197.88 682 197.88M678.93 189.24L678.93 189.91L685.07 189.91L685.07 189.24Q685.07 187.68 684.27 186.83Q683.46 185.98 682 185.98Q680.54 185.98 679.73 186.83Q678.93 187.68 678.93 189.24" fill="white" fill-opacity="0.7"/>
<path d="M696.40 197.88Q694.07 197.88 692.64 196.48Q691.22 195.07 691.22 192.60L691.22 189.48Q691.22 187.01 692.64 185.60Q694.07 184.20 696.40 184.20Q697.96 184.20 699.12 184.82Q700.29 185.45 700.94 186.58Q701.58 187.70 701.58 189.24L701.58 191.59L693.33 191.59L693.33 192.84Q693.33 194.30 694.17 195.16Q695.01 196.01 696.40 196.01Q697.60 196.01 698.38 195.54Q699.16 195.07 699.33 194.28L701.49 194.28Q701.27 195.94 699.88 196.91Q698.49 197.88 696.40 197.88M693.33 189.24L693.33 189.91L699.47 189.91L699.47 189.24Q699.47 187.68 698.67 186.83Q697.86 185.98 696.40 185.98Q694.94 185.98 694.13 186.83Q693.33 187.68 693.33 189.24" fill="white" fill-opacity="0.7"/>
<path d="M715.96 197.64L712.12 197.64Q710.49 197.64 709.50 196.69Q708.52 195.74 708.52 194.16L708.52 186.41L704.73 186.41L704.73 184.44L708.52 184.44L708.52 180.72L710.68 180.72L710.68 184.44L716.08 184.44L716.08 186.41L710.68 186.41L710.68 194.16Q710.68 194.83 711.08 195.25Q711.47 195.67 712.12 195.67L715.96 195.67" fill="white" fill-opacity="0.7"/>
<path d="M725.73 197.83L724.67 197.83Q722.46 197.83 721.25 196.84Q720.04 195.84 720.04 194.02L722.20 194.02Q722.20 194.93 722.85 195.44Q723.50 195.96 724.67 195.96L725.73 195.96Q726.93 195.96 727.59 195.43Q728.25 194.90 728.25 193.94Q728.25 192.24 726.69 192.02L723.04 191.50Q721.70 191.30 720.95 190.38Q720.21 189.46 720.21 187.94Q720.21 186.22 721.40 185.23Q722.58 184.25 724.67 184.25L725.73 184.25Q727.65 184.25 728.86 185.20Q730.07 186.14 730.17 187.68L727.98 187.68Q727.94 186.98 727.32 186.53Q726.71 186.07 725.73 186.07L724.67 186.07Q723.57 186.07 722.94 186.58Q722.32 187.08 722.32 187.94Q722.32 189.34 723.59 189.53L727 190.01Q730.36 190.49 730.36 193.94Q730.36 195.79 729.15 196.81Q727.94 197.83 725.73 197.83" fill="white" fill-opacity="0.7"/>
<path d="M755.42 197.64L752.58 197.64L748.10 184.44L750.42 184.44L753.30 193.32Q753.57 194.11 753.76 194.84Q753.95 195.58 754.05 195.98Q754.17 195.58 754.34 194.84Q754.50 194.11 754.74 193.32L757.62 184.44L759.90 184.44" fill="white" fill-opacity="0.7"/>
<path d="M774.52 197.64L763.24 197.64L763.24 195.67L767.92 195.67L767.92 186.41L763.72 186.41L763.72 184.44L770.08 184.44L770.08 195.67L774.52 195.67L774.52 197.64M768.76 182.06Q767.97 182.06 767.51 181.66Q767.06 181.25 767.06 180.55Q767.06 179.83 767.51 179.41Q767.97 178.99 768.76 178.99Q769.55 178.99 770.01 179.41Q770.46 179.83 770.46 180.55Q770.46 181.25 770.01 181.66Q769.55 182.06 768.76 182.06" fill="white" fill-opacity="0.7"/>
<path d="M781.65 197.88Q779.61 197.88 778.41 196.74Q777.21 195.60 777.21 193.75Q777.21 192.53 777.76 191.62Q778.31 190.70 779.30 190.19Q780.28 189.67 781.55 189.67L785.63 189.67L785.63 188.64Q785.63 186.07 782.82 186.07Q781.58 186.07 780.81 186.53Q780.04 186.98 779.99 187.80L777.83 187.80Q777.95 186.24 779.28 185.22Q780.62 184.20 782.82 184.20Q785.22 184.20 786.51 185.35Q787.79 186.50 787.79 188.57L787.79 197.64L785.66 197.64L785.66 195.24L785.61 195.24Q785.42 196.46 784.38 197.17Q783.35 197.88 781.65 197.88M782.18 196.06Q783.76 196.06 784.70 195.29Q785.63 194.52 785.63 193.20L785.63 191.35L781.79 191.35Q780.74 191.35 780.08 191.99Q779.42 192.62 779.42 193.68Q779.42 194.78 780.15 195.42Q780.88 196.06 782.18 196.06" fill="white" fill-opacity="0.7"/>
<path d="M811.14 197.64L806.61 197.64L806.61 180.12L811.14 180.12Q812.85 180.12 814.08 180.77Q815.32 181.42 816 182.59Q816.69 183.77 816.69 185.38L816.69 192.36Q816.69 193.97 816 195.16Q815.32 196.34 814.08 196.99Q812.85 197.64 811.14 197.64M808.77 182.04L808.77 195.72L811.14 195.72Q812.73 195.72 813.63 194.83Q814.53 193.94 814.53 192.36L814.53 185.38Q814.53 183.82 813.63 182.93Q812.73 182.04 811.14 182.04" fill="white" fill-opacity="0.7"/>
<path d="M832.12 197.64L820.84 197.64L820.84 195.67L825.52 195.67L825.52 186.41L821.32 186.41L821.32 184.44L827.68 184.44L827.68 195.67L832.12 195.67L832.12 197.64M826.36 182.06Q825.57 182.06 825.11 181.66Q824.66 181.25 824.66 180.55Q824.66 179.83 825.11 179.41Q825.57 178.99 826.36 178.99Q827.15 178.99 827.61 179.41Q828.06 179.83 828.06 180.55Q828.06 181.25 827.61 181.66Q827.15 182.06 826.36 182.06" fill="white" fill-opacity="0.7"/>
<path d="M840.76 201.96L837.06 201.96L837.06 199.99L840.78 199.99Q841.91 199.99 842.56 199.36Q843.21 198.72 843.21 197.64L843.21 196.44L843.26 194.28L843.18 194.28Q842.99 195.46 842.06 196.09Q841.12 196.73 839.70 196.73Q837.66 196.73 836.49 195.43Q835.31 194.14 835.31 191.88L835.31 189.10Q835.31 186.84 836.49 185.52Q837.66 184.20 839.70 184.20Q841.12 184.20 842.06 184.87Q842.99 185.54 843.18 186.72L843.23 186.72L843.23 184.44L845.37 184.44L845.37 197.64Q845.37 199.63 844.13 200.80Q842.90 201.96 840.76 201.96M840.35 194.93Q841.70 194.93 842.46 194.09Q843.23 193.25 843.23 191.76L843.23 189.24Q843.23 187.75 842.46 186.91Q841.70 186.07 840.35 186.07Q838.98 186.07 838.23 186.86Q837.47 187.66 837.47 189L837.47 192Q837.47 193.34 838.23 194.14Q838.98 194.93 840.35 194.93" fill="white" fill-opacity="0.7"/>
<path d="M860.92 197.64L849.64 197.64L849.64 195.67L854.32 195.67L854.32 186.41L850.12 186.41L850.12 184.44L856.48 184.44L856.48 195.67L860.92 195.67L860.92 197.64M855.16 182.06Q854.37 182.06 853.91 181.66Q853.46 181.25 853.46 180.55Q853.46 179.83 853.91 179.41Q854.37 178.99 855.16 178.99Q855.95 178.99 856.41 179.41Q856.86 179.83 856.86 180.55Q856.86 181.25 856.41 181.66Q855.95 182.06 855.16 182.06" fill="white" fill-opacity="0.7"/>
<path d="M875.20 197.64L865.12 197.64L865.12 180.12L867.28 180.12L867.28 195.67L875.20 195.67" fill="white" fill-opacity="0.7"/>
<path d="M883.60 197.83Q881.22 197.83 879.82 196.44Q878.42 195.05 878.42 192.55L878.42 189.53Q878.42 187.01 879.81 185.63Q881.20 184.25 883.60 184.25Q886 184.25 887.39 185.63Q888.78 187.01 888.78 189.53L888.78 192.55Q888.78 195.05 887.38 196.44Q885.98 197.83 883.60 197.83M883.60 195.91Q885.02 195.91 885.82 195.12Q886.62 194.33 886.62 192.79L886.62 189.29Q886.62 187.75 885.82 186.96Q885.02 186.17 883.60 186.17Q882.21 186.17 881.39 186.96Q880.58 187.75 880.58 189.29L880.58 192.79Q880.58 194.33 881.39 195.12Q882.21 195.91 883.60 195.91" fill="white" fill-opacity="0.7"/>
<path d="M898.19 197.88Q895.79 197.88 894.35 196.54Q892.91 195.19 892.91 192.84L892.91 189.24Q892.91 186.89 894.35 185.54Q895.79 184.20 898.19 184.20Q900.47 184.20 901.88 185.42Q903.28 186.65 903.35 188.76L901.19 188.76Q901.12 187.49 900.33 186.80Q899.54 186.12 898.19 186.12Q896.78 186.12 895.92 186.92Q895.07 187.73 895.07 189.22L895.07 192.84Q895.07 194.33 895.92 195.14Q896.78 195.96 898.19 195.96Q899.54 195.96 900.33 195.26Q901.12 194.57 901.19 193.32L903.35 193.32Q903.28 195.43 901.88 196.66Q900.47 197.88 898.19 197.88" fill="white" fill-opacity="0.7"/>
<path d="M909.69 197.64L907.53 197.64L907.53 180.12L909.69 180.12L909.69 189.89L912.21 189.89L915.90 184.44L918.38 184.44L914.13 190.73L918.62 197.64L916.10 197.64L912.26 191.76L909.69 191.76" fill="white" fill-opacity="0.7"/>
<path d="M926.80 197.88Q924.47 197.88 923.04 196.48Q921.62 195.07 921.62 192.60L921.62 189.48Q921.62 187.01 923.04 185.60Q924.47 184.20 926.80 184.20Q928.36 184.20 929.52 184.82Q930.69 185.45 931.34 186.58Q931.98 187.70 931.98 189.24L931.98 191.59L923.73 191.59L923.73 192.84Q923.73 194.30 924.57 195.16Q925.41 196.01 926.80 196.01Q928 196.01 928.78 195.54Q929.56 195.07 929.73 194.28L931.89 194.28Q931.67 195.94 930.28 196.91Q928.89 197.88 926.80 197.88M923.73 189.24L923.73 189.91L929.87 189.91L929.87 189.24Q929.87 187.68 929.07 186.83Q928.26 185.98 926.80 185.98Q925.34 185.98 924.53 186.83Q923.73 187.68 923.73 189.24" fill="white" fill-opacity="0.7"/>
<path d="M938.85 197.64L936.69 197.64L936.69 184.44L938.85 184.44L938.85 186.96L938.90 186.96Q939.06 185.69 939.98 184.94Q940.89 184.20 942.42 184.20Q944.49 184.20 945.60 185.44Q946.72 186.67 946.72 188.95L946.72 190.08L944.56 190.08L944.56 188.95Q944.56 186.07 941.75 186.07Q940.34 186.07 939.59 186.89Q938.85 187.70 938.85 189.24" fill="white" fill-opacity="0.7"/>
<path d="M970.12 197.64L967.96 197.64L967.96 188.21L964.12 188.21L964.12 186.24L967.96 186.24L967.96 183.48Q967.96 181.92 968.94 181.02Q969.93 180.12 971.66 180.12L975.52 180.12L975.52 182.09L971.66 182.09Q970.12 182.09 970.12 183.48L970.12 186.24L975.52 186.24L975.52 188.21L970.12 188.21" fill="white" fill-opacity="0.7"/>
<path d="M984.40 197.83Q982.02 197.83 980.62 196.44Q979.22 195.05 979.22 192.55L979.22 189.53Q979.22 187.01 980.61 185.63Q982 184.25 984.40 184.25Q986.80 184.25 988.19 185.63Q989.58 187.01 989.58 189.53L989.58 192.55Q989.58 195.05 988.18 196.44Q986.78 197.83 984.40 197.83M984.40 195.91Q985.82 195.91 986.62 195.12Q987.42 194.33 987.42 192.79L987.42 189.29Q987.42 187.75 986.62 186.96Q985.82 186.17 984.40 186.17Q983.01 186.17 982.19 186.96Q981.38 187.75 981.38 189.29L981.38 192.79Q981.38 194.33 982.19 195.12Q983.01 195.91 984.40 195.91" fill="white" fill-opacity="0.7"/>
<path d="M996.45 197.64L994.29 197.64L994.29 184.44L996.45 184.44L996.45 186.96L996.50 186.96Q996.66 185.69 997.58 184.94Q998.49 184.20 1000.02 184.20Q1002.09 184.20 1003.20 185.44Q1004.32 186.67 1004.32 188.95L1004.32 190.08L1002.16 190.08L1002.16 188.95Q1002.16 186.07 999.35 186.07Q997.94 186.07 997.19 186.89Q996.45 187.70 996.45 189.24" fill="white" fill-opacity="0.7"/>
<path d="M1028.13 197.83L1027.07 197.83Q1024.86 197.83 1023.65 196.84Q1022.44 195.84 1022.44 194.02L1024.60 194.02Q1024.60 194.93 1025.25 195.44Q1025.90 195.96 1027.07 195.96L1028.13 195.96Q1029.33 195.96 1029.99 195.43Q1030.65 194.90 1030.65 193.94Q1030.65 192.24 1029.09 192.02L1025.44 191.50Q1024.10 191.30 1023.35 190.38Q1022.61 189.46 1022.61 187.94Q1022.61 186.22 1023.80 185.23Q1024.98 184.25 1027.07 184.25L1028.13 184.25Q1030.05 184.25 1031.26 185.20Q1032.47 186.14 1032.57 187.68L1030.38 187.68Q1030.34 186.98 1029.72 186.53Q1029.11 186.07 1028.13 186.07L1027.07 186.07Q1025.97 186.07 1025.34 186.58Q1024.72 187.08 1024.72 187.94Q1024.72 189.34 1025.99 189.53L1029.40 190.01Q1032.76 190.49 1032.76 193.94Q1032.76 195.79 1031.55 196.81Q1030.34 197.83 1028.13 197.83" fill="white" fill-opacity="0.7"/>
<path d="M1047.16 197.64L1043.32 197.64Q1041.69 197.64 1040.70 196.69Q1039.72 195.74 1039.72 194.16L1039.72 186.41L1035.93 186.41L1035.93 184.44L1039.72 184.44L1039.72 180.72L1041.88 180.72L1041.88 184.44L1047.28 184.44L1047.28 186.41L1041.88 186.41L1041.88 194.16Q1041.88 194.83 1042.28 195.25Q1042.67 195.67 1043.32 195.67L1047.16 195.67" fill="white" fill-opacity="0.7"/>
<path d="M1056.38 197.88Q1054.10 197.88 1052.73 196.52Q1051.36 195.17 1051.36 192.84L1051.36 184.44L1053.52 184.44L1053.52 192.84Q1053.52 194.28 1054.29 195.13Q1055.06 195.98 1056.38 195.98Q1057.72 195.98 1058.50 195.13Q1059.28 194.28 1059.28 192.84L1059.28 184.44L1061.44 184.44L1061.44 192.84Q1061.44 195.17 1060.05 196.52Q1058.66 197.88 1056.38 197.88" fill="white" fill-opacity="0.7"/>
<path d="M1070.03 197.88Q1068.06 197.88 1066.88 196.56Q1065.69 195.24 1065.69 192.98L1065.69 189.12Q1065.69 186.84 1066.86 185.52Q1068.04 184.20 1070.03 184.20Q1071.52 184.20 1072.49 184.94Q1073.46 185.69 1073.66 186.96L1073.68 186.96L1073.63 183.96L1073.63 180.12L1075.79 180.12L1075.79 197.64L1073.63 197.64L1073.63 195.12L1073.61 195.12Q1073.44 196.42 1072.48 197.15Q1071.52 197.88 1070.03 197.88M1070.75 196.01Q1072.10 196.01 1072.86 195.17Q1073.63 194.33 1073.63 192.84L1073.63 189.24Q1073.63 187.75 1072.86 186.91Q1072.10 186.07 1070.75 186.07Q1069.38 186.07 1068.62 186.78Q1067.85 187.49 1067.85 189.12L1067.85 192.96Q1067.85 194.57 1068.62 195.29Q1069.38 196.01 1070.75 196.01" fill="white" fill-opacity="0.7"/>
<path d="M1085.20 197.88Q1082.87 197.88 1081.44 196.48Q1080.02 195.07 1080.02 192.60L1080.02 189.48Q1080.02 187.01 1081.44 185.60Q1082.87 184.20 1085.20 184.20Q1086.76 184.20 1087.92 184.82Q1089.09 185.45 1089.74 186.58Q1090.38 187.70 1090.38 189.24L1090.38 191.59L1082.13 191.59L1082.13 192.84Q1082.13 194.30 1082.97 195.16Q1083.81 196.01 1085.20 196.01Q1086.40 196.01 1087.18 195.54Q1087.96 195.07 1088.13 194.28L1090.29 194.28Q1090.07 195.94 1088.68 196.91Q1087.29 197.88 1085.20 197.88M1082.13 189.24L1082.13 189.91L1088.27 189.91L1088.27 189.24Q1088.27 187.68 1087.47 186.83Q1086.66 185.98 1085.20 185.98Q1083.74 185.98 1082.93 186.83Q1082.13 187.68 1082.13 189.24" fill="white" fill-opacity="0.7"/>
<path d="M1096.77 197.64L1094.61 197.64L1094.61 184.44L1096.77 184.44L1096.77 186.96L1096.79 186.96Q1096.96 185.64 1097.87 184.92Q1098.78 184.20 1100.30 184.20Q1102.29 184.20 1103.46 185.42Q1104.64 186.65 1104.64 188.76L1104.64 197.64L1102.48 197.64L1102.48 189.14Q1102.48 187.63 1101.72 186.83Q1100.97 186.02 1099.67 186.02Q1098.33 186.02 1097.55 186.86Q1096.77 187.70 1096.77 189.24" fill="white" fill-opacity="0.7"/>
<path d="M1119.16 197.64L1115.32 197.64Q1113.69 197.64 1112.70 196.69Q1111.72 195.74 1111.72 194.16L1111.72 186.41L1107.93 186.41L1107.93 184.44L1111.72 184.44L1111.72 180.72L1113.88 180.72L1113.88 184.44L1119.28 184.44L1119.28 186.41L1113.88 186.41L1113.88 194.16Q1113.88 194.83 1114.28 195.25Q1114.67 195.67 1115.32 195.67L1119.16 195.67" fill="white" fill-opacity="0.7"/>
<path d="M74.85 229.64L72.69 229.64L72.69 216.44L74.85 216.44L74.85 218.96L74.90 218.96Q75.06 217.69 75.98 216.94Q76.89 216.20 78.42 216.20Q80.49 216.20 81.60 217.44Q82.72 218.67 82.72 220.95L82.72 222.08L80.56 222.08L80.56 220.95Q80.56 218.07 77.75 218.07Q76.34 218.07 75.59 218.89Q74.85 219.70 74.85 221.24" fill="white" fill-opacity="0.7"/>
<path d="M91.60 229.88Q89.27 229.88 87.84 228.48Q86.42 227.07 86.42 224.60L86.42 221.48Q86.42 219.01 87.84 217.60Q89.27 216.20 91.60 216.20Q93.16 216.20 94.32 216.82Q95.49 217.45 96.14 218.58Q96.78 219.70 96.78 221.24L96.78 223.59L88.53 223.59L88.53 224.84Q88.53 226.30 89.37 227.16Q90.21 228.01 91.60 228.01Q92.80 228.01 93.58 227.54Q94.36 227.07 94.53 226.28L96.69 226.28Q96.47 227.94 95.08 228.91Q93.69 229.88 91.60 229.88M88.53 221.24L88.53 221.91L94.67 221.91L94.67 221.24Q94.67 219.68 93.87 218.83Q93.06 217.98 91.60 217.98Q90.14 217.98 89.33 218.83Q88.53 219.68 88.53 221.24" fill="white" fill-opacity="0.7"/>
<path d="M111.16 229.64L107.32 229.64Q105.69 229.64 104.70 228.69Q103.72 227.74 103.72 226.16L103.72 218.41L99.93 218.41L99.93 216.44L103.72 216.44L103.72 212.72L105.88 212.72L105.88 216.44L111.28 216.44L111.28 218.41L105.88 218.41L105.88 226.16Q105.88 226.83 106.28 227.25Q106.67 227.67 107.32 227.67L111.16 227.67" fill="white" fill-opacity="0.7"/>
<path d="M118.05 229.64L115.89 229.64L115.89 216.44L118.05 216.44L118.05 218.96L118.10 218.96Q118.26 217.69 119.18 216.94Q120.09 216.20 121.62 216.20Q123.69 216.20 124.80 217.44Q125.92 218.67 125.92 220.95L125.92 222.08L123.76 222.08L123.76 220.95Q123.76 218.07 120.95 218.07Q119.54 218.07 118.79 218.89Q118.05 219.70 118.05 221.24" fill="white" fill-opacity="0.7"/>
<path d="M140.92 229.64L129.64 229.64L129.64 227.67L134.32 227.67L134.32 218.41L130.12 218.41L130.12 216.44L136.48 216.44L136.48 227.67L140.92 227.67L140.92 229.64M135.16 214.06Q134.37 214.06 133.91 213.66Q133.46 213.25 133.46 212.55Q133.46 211.83 133.91 211.41Q134.37 210.99 135.16 210.99Q135.95 210.99 136.41 211.41Q136.86 211.83 136.86 212.55Q136.86 213.25 136.41 213.66Q135.95 214.06 135.16 214.06" fill="white" fill-opacity="0.7"/>
<path d="M149.20 229.88Q146.87 229.88 145.44 228.48Q144.02 227.07 144.02 224.60L144.02 221.48Q144.02 219.01 145.44 217.60Q146.87 216.20 149.20 216.20Q150.76 216.20 151.92 216.82Q153.09 217.45 153.74 218.58Q154.38 219.70 154.38 221.24L154.38 223.59L146.13 223.59L146.13 224.84Q146.13 226.30 146.97 227.16Q147.81 228.01 149.20 228.01Q150.40 228.01 151.18 227.54Q151.96 227.07 152.13 226.28L154.29 226.28Q154.07 227.94 152.68 228.91Q151.29 229.88 149.20 229.88M146.13 221.24L146.13 221.91L152.27 221.91L152.27 221.24Q152.27 219.68 151.47 218.83Q150.66 217.98 149.20 217.98Q147.74 217.98 146.93 218.83Q146.13 219.68 146.13 221.24" fill="white" fill-opacity="0.7"/>
<path d="M165.02 229.64L162.18 229.64L157.70 216.44L160.02 216.44L162.90 225.32Q163.17 226.11 163.36 226.84Q163.55 227.58 163.65 227.98Q163.77 227.58 163.94 226.84Q164.10 226.11 164.34 225.32L167.22 216.44L169.50 216.44" fill="white" fill-opacity="0.7"/>
<path d="M176.85 229.88Q174.81 229.88 173.61 228.74Q172.41 227.60 172.41 225.75Q172.41 224.53 172.96 223.62Q173.51 222.70 174.50 222.19Q175.48 221.67 176.75 221.67L180.83 221.67L180.83 220.64Q180.83 218.07 178.02 218.07Q176.78 218.07 176.01 218.53Q175.24 218.98 175.19 219.80L173.03 219.80Q173.15 218.24 174.48 217.22Q175.82 216.20 178.02 216.20Q180.42 216.20 181.71 217.35Q182.99 218.50 182.99 220.57L182.99 229.64L180.86 229.64L180.86 227.24L180.81 227.24Q180.62 228.46 179.58 229.17Q178.55 229.88 176.85 229.88M177.38 228.06Q178.96 228.06 179.90 227.29Q180.83 226.52 180.83 225.20L180.83 223.35L176.99 223.35Q175.94 223.35 175.28 223.99Q174.62 224.62 174.62 225.68Q174.62 226.78 175.35 227.42Q176.08 228.06 177.38 228.06" fill="white" fill-opacity="0.7"/>
<path d="M198.40 229.64L194.32 229.64Q192.57 229.64 191.52 228.62Q190.48 227.60 190.48 225.92L190.48 214.09L185.92 214.09L185.92 212.12L192.64 212.12L192.64 225.92Q192.64 226.74 193.10 227.20Q193.55 227.67 194.32 227.67L198.40 227.67" fill="white" fill-opacity="0.7"/>
<path d="M206.80 229.88Q205.91 229.88 205.37 229.35Q204.83 228.82 204.83 227.98Q204.83 227.10 205.37 226.54Q205.91 225.99 206.80 225.99Q207.69 225.99 208.23 226.54Q208.77 227.10 208.77 227.98Q208.77 228.82 208.23 229.35Q207.69 229.88 206.80 229.88" fill="white" fill-opacity="0.7"/>
<path d="M76.11 136.06L66.42 136.06L84.56 65.98L97.14 65.98L115.18 136.06L105.49 136.06L101.07 117.82L80.53 117.82L76.11 136.06M87.54 88.92L82.45 109.95L99.15 109.95L94.16 89.02Q92.72 83.26 91.86 79.23Q90.99 75.20 90.80 73.76Q90.61 75.20 89.74 79.23Q88.88 83.26 87.54 88.92M137.55 136.06L128.05 136.06L128.05 65.98L150.80 65.98Q157.52 65.98 162.42 68.57Q167.31 71.16 170 75.82Q172.69 80.48 172.69 86.91Q172.69 93.24 170 97.90Q167.31 102.56 162.37 105.15Q157.42 107.74 150.80 107.74L137.55 107.74L137.55 136.06M137.55 74.43L137.55 99.29L150.80 99.29Q156.37 99.29 159.63 95.88Q162.90 92.48 162.90 86.91Q162.90 81.24 159.63 77.84Q156.37 74.43 150.80 74.43L137.55 74.43M225.10 136.06L186.90 136.06L186.90 127.42L201.20 127.42L201.20 74.62L186.90 74.62L186.90 65.98L225.10 65.98L225.10 74.62L210.80 74.62L210.80 127.42L225.10 127.42L225.10 136.06M263.98 137.02Q253.62 137.02 247.47 131.60Q241.33 126.17 241.33 116.67L250.83 116.67Q250.83 122.24 254.38 125.40Q257.94 128.57 263.98 128.57Q269.74 128.57 273.15 125.36Q276.56 122.14 276.56 116.76Q276.56 112.73 274.35 109.71Q272.14 106.68 268.11 105.63L257.74 102.84Q250.93 100.92 246.94 95.88Q242.96 90.84 242.96 83.93Q242.96 78.27 245.50 74Q248.05 69.72 252.66 67.37Q257.26 65.02 263.31 65.02Q269.46 65.02 274.11 67.37Q278.77 69.72 281.36 73.95Q283.95 78.17 283.95 83.74L274.54 83.74Q274.54 79.13 271.42 76.25Q268.30 73.37 263.31 73.37Q258.32 73.37 255.30 76.25Q252.27 79.13 252.27 83.74Q252.27 87.48 254.29 90.03Q256.30 92.57 259.95 93.63L270.61 96.51Q277.81 98.43 281.84 103.85Q285.87 109.28 285.87 116.76Q285.87 122.91 283.18 127.47Q280.50 132.03 275.55 134.52Q270.61 137.02 263.98 137.02M342.51 136.06L301.71 136.06L301.71 65.98L342.51 65.98L342.51 74.52L311.12 74.52L311.12 95.36L339.15 95.36L339.15 103.61L311.12 103.61L311.12 127.52L342.51 127.52L342.51 136.06M383.60 136.06L374.10 136.06L374.10 74.62L355.09 74.62L355.09 65.98L402.51 65.98L402.51 74.62L383.60 74.62L383.60 136.06M436.40 137.02Q426.51 137.02 421.18 131.55Q415.86 126.08 415.86 116.67L415.86 65.98L425.36 65.98L425.36 116.67Q425.36 122.24 428.10 125.40Q430.83 128.57 436.40 128.57Q441.87 128.57 444.70 125.40Q447.54 122.24 447.54 116.67L447.54 65.98L457.04 65.98L457.04 116.67Q457.04 126.17 451.71 131.60Q446.38 137.02 436.40 137.02M551.98 137.02Q542.29 137.02 536.58 131.60Q530.86 126.17 530.86 116.67L530.86 85.28Q530.86 75.87 536.58 70.44Q542.29 65.02 551.98 65.02Q561.58 65.02 567.30 70.49Q573.01 75.96 573.01 85.28L563.50 85.28Q563.50 79.61 560.43 76.54Q557.36 73.47 551.98 73.47Q546.51 73.47 543.44 76.54Q540.37 79.61 540.37 85.28L540.37 116.67Q540.37 122.43 543.44 125.50Q546.51 128.57 551.98 128.57Q557.36 128.57 560.43 125.50Q563.50 122.43 563.50 116.67L563.50 107.55L549.87 107.55L549.87 99.10L573.01 99.10L573.01 116.67Q573.01 126.08 567.30 131.55Q561.58 137.02 551.98 137.02M609.20 137.02Q599.60 137.02 594.03 131.45Q588.46 125.88 588.46 115.71L588.46 86.24Q588.46 76.16 594.03 70.59Q599.60 65.02 609.20 65.02Q618.80 65.02 624.37 70.54Q629.94 76.06 629.94 86.24L629.94 115.71Q629.94 125.88 624.37 131.45Q618.80 137.02 609.20 137.02M609.20 128.57Q614.58 128.57 617.50 125.50Q620.43 122.43 620.43 116.67L620.43 85.28Q620.43 79.61 617.55 76.54Q614.67 73.47 609.20 73.47Q603.73 73.47 600.85 76.54Q597.97 79.61 597.97 85.28L597.97 116.67Q597.97 122.43 600.90 125.50Q603.82 128.57 609.20 128.57M673.14 136.06L660.37 136.06L642.42 65.98L652.21 65.98L663.82 113.21Q664.98 117.72 665.79 121.90Q666.61 126.08 666.99 128.28Q667.28 126.08 668.19 121.85Q669.10 117.63 670.16 113.12L681.39 65.98L691.18 65.98L673.14 136.06M771.25 136.06L761.74 136.06L761.74 65.98L771.25 65.98L771.25 95.55L792.75 95.55L792.75 65.98L802.26 65.98L802.26 136.06L792.75 136.06L792.75 104.19L771.25 104.19L771.25 136.06M839.98 137.02Q829.62 137.02 823.47 131.60Q817.33 126.17 817.33 116.67L826.83 116.67Q826.83 122.24 830.38 125.40Q833.94 128.57 839.98 128.57Q845.74 128.57 849.15 125.36Q852.56 122.14 852.56 116.76Q852.56 112.73 850.35 109.71Q848.14 106.68 844.11 105.63L833.74 102.84Q826.93 100.92 822.94 95.88Q818.96 90.84 818.96 83.93Q818.96 78.27 821.50 74Q824.05 69.72 828.66 67.37Q833.26 65.02 839.31 65.02Q845.46 65.02 850.11 67.37Q854.77 69.72 857.36 73.95Q859.95 78.17 859.95 83.74L850.54 83.74Q850.54 79.13 847.42 76.25Q844.30 73.37 839.31 73.37Q834.32 73.37 831.30 76.25Q828.27 79.13 828.27 83.74Q828.27 87.48 830.29 90.03Q832.30 92.57 835.95 93.63L846.61 96.51Q853.81 98.43 857.84 103.85Q861.87 109.28 861.87 116.76Q861.87 122.91 859.18 127.47Q856.50 132.03 851.55 134.52Q846.61 137.02 839.98 137.02M898.54 136.06L876.94 136.06L876.94 65.98L897.20 65.98Q906.90 65.98 912.51 70.83Q918.13 75.68 918.13 84.12Q918.13 89.60 914.72 93.87Q911.31 98.14 905.94 99.10L905.94 99.39Q909.97 99.87 913.09 102.27Q916.21 104.67 917.98 108.36Q919.76 112.06 919.76 116.48Q919.76 125.50 914.05 130.78Q908.34 136.06 898.54 136.06M886.26 74.33L886.26 95.55L897.10 95.55Q902.48 95.55 905.55 92.72Q908.62 89.88 908.62 84.99Q908.62 80 905.55 77.16Q902.48 74.33 897.20 74.33L886.26 74.33M886.26 103.61L886.26 127.71L897.68 127.71Q903.54 127.71 906.90 124.59Q910.26 121.47 910.26 116.09Q910.26 110.52 906.90 107.07Q903.54 103.61 897.68 103.61L886.26 103.61M959.60 136.06L950.10 136.06L950.10 74.62L931.09 74.62L931.09 65.98L978.51 65.98L978.51 74.62L959.60 74.62L959.60 136.06M1033.71 136.06L992.91 136.06L992.91 65.98L1033.71 65.98L1033.71 74.52L1002.32 74.52L1002.32 95.36L1030.35 95.36L1030.35 103.61L1002.32 103.61L1002.32 127.52L1033.71 127.52" fill="url(#paint2_linear_0_1)"/>
<g id="Group 1">
<rect id="Rectangle 1" x="26" y="168" width="12" height="184" rx="5" fill="url(#paint3_linear_0_1)" fill-opacity="0.9"/>
</g>
<g id="Group 1_2">
<rect id="Rectangle 2" x="26" y="38" width="12" height="119" rx="5" fill="url(#paint4_linear_0_1)" fill-opacity="0.9"/>
</g>
<ellipse id="Ellipse 1" cx="148.5" cy="573" rx="215.5" ry="214" fill="url(#paint5_linear_0_1)" fill-opacity="0.4"/>
<rect id="Rectangle 3" x="1229" y="48" width="300" height="300" rx="25" fill="#FFFBFB" fill-opacity="0.9"/>
<g id="placeholder-logo"><g transform="translate(1229,48) translate(0.0,60.0) scale(1.2000)"><g fill="#666666">
  <path d="m88.05,27.65c-3.15,4 -3.2,51.2 -0.05,54.35c2.75,2.75 71.7,3.15 74.45,0.45c2.85,-2.9 2.3,-53.85 -0.65,-55.9c-1.95,-1.35 -7.15,-1.55 -36.95,-1.55l-34.7,0l-2.1,2.65zm69.45,3.35c0.65,0 1,8.6 1,23.75l0,23.75l-33,0l-33,0l-0.25,-23c-0.15,-12.6 -0.1,-23.45 0.15,-24.1c0.35,-0.85 8.9,-1.05 32.25,-0.75c17.55,0.2 32.3,0.35 32.85,0.35z"/>
  <path d="m99.15,37.3c-6.85,7.35 4.25,17.35 11.4,10.25c1.35,-1.35 2.45,-3.65 2.45,-5.05c0,-6.45 -9.35,-9.95 -13.85,-5.2z"/>
  <path d="m135,42.5c-0.7,0.85 -5.25,5.15 -10.1,9.6l-8.85,8.1l-3.2,-3.2l-3.15,-3.15l-6.35,6.3c-5.55,5.5 -6.35,6.75 -6.35,10.05l0,3.8l28.5,0l28.5,0l0,-8.6l0,-8.55l-8.15,-7.7c-9.35,-8.85 -9.15,-8.7 -10.85,-6.65zm7.25,15.2c0.95,0.9 1.75,2.9 1.75,4.45c6.35,-5.05 4.75,-7.15 4.9,-11.55c0.95,0 0,0 0,0l-6.65,7.1z"/>
  <path d="m53.65,110.75c0.1,4.8 0.45,8.65 0.75,8.5c0.35,-0.15 1.3,-0.25 2.1,-0.25c1.1,0 1.5,-1.2 1.5,-4.75l0,-4.75l3.25,5c4.9,7.5 6.2,6.75 6.55,-3.75c0.25,-8.15 0.15,-8.75 -1.7,-8.75c-1.65,0 -2.05,0.8 -2.3,4.75l-0.3,4.75l-2.8,-4.75c-4.85,-8.25 -7.25,-6.9 -7.05,4z"/>
  <path d="m91,108.9c0,9.65 0.3,10.1 6.1,10.1c5.8,0 7.15,-2.65 1.65,-3.2l-3.25,-0.3l-0.3,-6.75c-0.25,-5.95 -0.55,-6.75 -2.25,-6.75c-1.75,0 -1.95,0.7 -1.95,6.9z"/>
  <path d="m151,102.45c0,0.25 1,2.15 2.25,4.2c1.2,2.1 2.45,5.8 2.75,8.25c0.65,5.9 4,6.95 4,1.25c0.05,-2.1 1.25,-5.85 2.95,-8.9l2.9,-5.25l-2.5,0c-1.8,0 -2.8,0.85 -3.75,3.1l-1.3,3.05l-1.25,-3.05c-1.1,-2.6 -6.05,-4.8 -6.05,-2.65z"/>
  <path d="m191,107.45c0,9.05 3.4,8.85 4.25,-0.2c0.45,-5 0.35,-5.25 -1.9,-5.25c-2.2,0 -2.35,0.4 -2.35,5.45z"/>
  <path d="m180.8,104.75c-1.3,5.35 0.65,13.6 3.45,14.35c2.3,0.6 2.75,0.4 2.75,-1.2c0,-1.05 -0.45,-1.9 -1,-1.9c-0.55,0 -1,-1.6 -1,-3.5c0,-1.95 0.45,-3.5 1,-3.5c0.55,0 1,-0.7 1,-1.5c0,-0.85 -0.45,-1.5 -1,-1.5c-0.55,0 -1,-0.7 -1,-1.5c0,-2.1 -3.65,-1.9 -4.2,0.25z"/>
  <path d="m71.55,106.55c-2.2,2.25 -2.05,9.7 0.3,11.8c4.5,4.1 10.15,0.75 10.15,-6.1c0,-4.85 -2,-7.25 -6,-7.25c-1.55,0 -3.55,0.7 -4.45,1.55zm6.25,5.8c0.25,3.05 0,3.65 -1.6,3.65c-2.3,0 -3.25,-2.65 -2.05,-5.85c1.25,-3.35 3.3,-2.1 3.65,2.2z"/>
  <path d="m105.75,106.1c-2.5,1.45 -2.45,9.95 0.1,12.25c4.3,3.9 10.15,0.35 10.15,-6.2c0,-6 -5.15,-9.05 -10.25,-6.05zm6.05,6.25c0.25,3.05 0,3.65 -1.6,3.65c-2.3,0 -3.25,-2.65 -2.05,-5.85c1.25,-3.35 3.3,-2.1 3.65,2.2z"/>
  <path d="m119.2,106.2c-3.8,3.8 -0.4,12.55 4.4,11.35c1.9,-0.45 2.45,-0.3 2.15,0.65c-0.25,0.7 -1.55,1.2 -2.85,1.1c-4.05,-0.3 -5.35,0.45 -3.85,2.25c0.85,1.05 2.6,1.45 5.35,1.25l4.1,-0.3l0.3,-8.75l0.3,-8.75l-4.35,0c-2.4,0 -4.9,0.55 -5.55,1.2zm6.6,4.45c0.4,2.85 -2.15,4.85 -3.75,2.95c-0.9,-1.1 -0.9,-2 -0.05,-3.6c1.35,-2.5 3.4,-2.15 3.8,0.65z"/>
  <path d="m133.55,106.55c-2.2,2.25 -2.05,9.7 0.3,11.8c4.5,4.1 10.15,0.75 10.15,-6.1c0,-4.85 -2,-7.25 -6,-7.25c-1.55,0 -3.55,0.7 -4.45,1.55zm6.25,5.8c0.25,3.05 0,3.65 -1.6,3.65c-2.3,0 -3.25,-2.65 -2.05,-5.85c1.25,-3.35 3.3,-2.1 3.65,2.2z"/>
  <path d="m167.65,106.85c-3.9,4.3 -0.75,13.15 4.7,13.15c2.4,0 5.65,-2.75 5.65,-4.85c0,-1.4 -2.65,-1.55 -3.5,-0.15c-0.95,1.55 -4.5,1.15 -4.5,-0.5c0,-1.1 1.1,-1.5 4,-1.5c3.15,0 4,-0.35 4,-1.8c0,-5.3 -6.85,-8.25 -10.35,-4.35z"/>
  <path d="m191,117.5c0,2.15 0.4,2.6 2.25,2.3c1.5,-0.2 2.25,-1 2.25,-2.3c0,-1.3 -0.75,-2.1 -2.25,-2.3c-1.85,-0.3 -2.25,0.15 -2.25,2.3z"/>
 </g></g></g>
</g>
<defs>
<linearGradient id="paint0_linear_0_1" x1="0" y1="198" x2="1584" y2="198" gradientUnits="userSpaceOnUse">
<stop stop-color="#3D052C"/>
<stop offset="1"/>
</linearGradient>
<linearGradient id="paint1_linear_0_1" x1="323" y1="-224" x2="323" y2="352" gradientUnits="userSpaceOnUse">
<stop stop-color="#28F6F2" stop-opacity="0.4"/>
<stop offset="1" stop-color="#17908E" stop-opacity="0.7"/>
</linearGradient>
<linearGradient id="paint2_linear_0_1" x1="148.5" y1="38" x2="148.5" y2="140" gradientUnits="userSpaceOnUse">
<stop stop-color="white"/>
<stop offset="1" stop-color="#999999"/>
</linearGradient>
<linearGradient id="paint3_linear_0_1" x1="38" y1="260" x2="26" y2="260" gradientUnits="userSpaceOnUse">
<stop stop-color="#D9D9D9"/>
<stop offset="1" stop-color="#737373"/>
</linearGradient>
<linearGradient id="paint4_linear_0_1" x1="38" y1="97.5" x2="26" y2="97.5" gradientUnits="userSpaceOnUse">
<stop stop-color="#D9D9D9"/>
<stop offset="1" stop-color="#737373"/>
</linearGradient>
<linearGradient id="paint5_linear_0_1" x1="27.5" y1="434.5" x2="148.5" y2="787" gradientUnits="userSpaceOnUse">
<stop stop-color="#2E21BC"/>
<stop offset="1" stop-color="#150F56"/>
</linearGradient>
<clipPath id="clip0_0_1">
<rect width="1584" height="396" fill="white"/>
</clipPath>
</defs>
</svg>
